<?xml version="1.0" standalone="no"?>
<!DOCTYPE svg PUBLIC "-//W3C//DTD SVG 1.1//EN" "http://www.w3.org/Graphics/SVG/1.1/DTD/svg11.dtd">
<svg xmlns="http://www.w3.org/2000/svg" width="987" height="929" viewBox="0 0 987 929" version="1.1"><path d="M 5.524 5.089 C 5.229 5.865, 5.103 107.075, 5.244 230 L 5.500 453.500 14.371 440 C 36.305 406.621, 57.197 383.139, 82.500 363.426 C 111.666 340.704, 154.608 318.932, 196 305.882 C 223.445 297.229, 247.015 292.176, 284 287.017 C 295.825 285.368, 306.962 283.769, 308.750 283.464 L 312 282.909 312 143.955 L 312 5 190.663 5 C 123.928 5, 55.091 4.703, 37.693 4.339 C 10.949 3.780, 5.978 3.896, 5.524 5.089 M 672.473 116.500 C 672.473 153.900, 672.597 169.055, 672.750 150.177 C 672.902 131.299, 672.902 100.699, 672.749 82.177 C 672.597 63.655, 672.473 79.100, 672.473 116.500 M 581.462 468.250 L 576.500 473.500 581.750 468.538 C 586.628 463.926, 587.459 463, 586.712 463 C 586.554 463, 584.192 465.363, 581.462 468.250 M 976.714 480.250 C 975.400 482.038, 970.796 488.675, 966.483 495 C 939.983 533.855, 910.970 561.635, 873.017 584.495 C 818.058 617.597, 755.318 638.175, 689 644.848 L 672.500 646.509 671.661 784.365 C 671.156 867.279, 671.186 922.586, 671.734 923.134 C 672.281 923.681, 734.302 923.771, 826.823 923.358 L 981 922.671 981 699.835 C 981 559.911, 980.647 477, 980.051 477 C 979.529 477, 978.027 478.462, 976.714 480.250 M 312.400 708.500 C 312.401 716.750, 312.556 719.992, 312.744 715.704 C 312.932 711.417, 312.931 704.667, 312.742 700.704 C 312.552 696.742, 312.399 700.250, 312.400 708.500 M 311.432 839 C 311.432 852.475, 311.574 857.987, 311.747 851.250 C 311.920 844.513, 311.920 833.487, 311.747 826.750 C 311.574 820.013, 311.432 825.525, 311.432 839" stroke="none" fill="#bb2e2e" fill-rule="evenodd"/><path d="M 674.260 6.247 C 673.625 7.051, 673.032 57.421, 672.604 146.781 C 671.897 294.589, 671.822 296.897, 666.954 320 C 657.694 363.953, 639.440 401.354, 609.119 438.500 C 561.890 496.359, 495.918 538.433, 399 572.503 C 391.575 575.113, 385.137 577.578, 384.693 577.981 C 382.991 579.527, 424.437 589.098, 447.500 592.486 C 489.638 598.675, 552.635 599.490, 598 594.432 C 670.533 586.344, 741.109 565.242, 797.408 534.806 C 864.594 498.486, 915.428 451.060, 947.798 394.500 C 959.499 374.056, 970.831 343.825, 975.412 320.833 C 980.601 294.794, 980.500 298.241, 980.500 147 L 980.500 5.500 827.875 5.247 C 706.519 5.045, 675.047 5.250, 674.260 6.247 M 405.500 332.045 C 330.514 337.210, 260.469 355.564, 199 386.154 C 153.392 408.851, 111.362 439.674, 80.058 473.383 C 36.731 520.038, 11.120 572.427, 6.009 624.856 C 5.383 631.284, 5 689.785, 5 779.106 L 5 923 158 923 L 311 923 311.004 890.750 C 311.006 873.013, 311.468 808.775, 312.030 748 C 313.126 629.516, 313.333 624.906, 318.605 601 C 323.080 580.707, 332.390 555.289, 341.312 539 C 371.478 483.931, 420.284 437.021, 486.500 399.452 C 514.777 383.409, 553.932 366.882, 588.250 356.505 C 595.263 354.384, 601 352.296, 601 351.863 C 601 350.991, 598.375 350.229, 583 346.637 C 560.351 341.346, 528.400 336.264, 500 333.435 C 481.522 331.595, 424.266 330.752, 405.500 332.045" stroke="none" fill="#24145c" fill-rule="evenodd"/></svg>